<?xml version="1.0" encoding="utf-8"?>
<!-- Generator: Adobe Illustrator 30.0.0, SVG Export Plug-In . SVG Version: 9.03 Build 0)  -->
<svg version="1.0" id="katman_1" xmlns="http://www.w3.org/2000/svg" xmlns:xlink="http://www.w3.org/1999/xlink" x="0px" y="0px"
	 viewBox="0 0 1366 768" style="enable-background:new 0 0 1366 768;" xml:space="preserve">
<style type="text/css">
	.st0{clip-path:url(#SVGID_00000077282551584960493730000015544458118995150489_);}
	.st1{fill:#FFFFFF;}
	.st2{filter:url(#df424674fd);}
	.st3{opacity:0.52;}
	.st4{mask:url(#_x39_f3d763aca_00000063608808933803034700000003023752203452890766_);}
	.st5{clip-path:url(#SVGID_00000177454671381181497430000006098691466733875853_);}
	.st6{clip-path:url(#SVGID_00000097459772875884887130000007355010164939675009_);}
	.st7{clip-path:url(#SVGID_00000124844098468265013480000005448587377958783930_);}
	.st8{clip-path:url(#SVGID_00000035530278154756315060000008694588763670234008_);}
	.st9{clip-path:url(#SVGID_00000165951153796949946350000016960110086159857069_);}
	.st10{fill:#908FB2;stroke:#000000;stroke-miterlimit:10;}
	.st11{opacity:0.5;}
	.st12{mask:url(#a692ac4b8c_00000095308629723087095280000002562493369773326515_);}
	.st13{clip-path:url(#SVGID_00000002371200556296296000000018335618567170288545_);}
	.st14{clip-path:url(#SVGID_00000159441537856530318060000006276683377232974517_);}
	.st15{clip-path:url(#SVGID_00000000185016756781198730000010046581111472283778_);}
	.st16{clip-path:url(#SVGID_00000036937425427170608480000000924235068487099289_);}
	.st17{clip-path:url(#SVGID_00000098910547413139455140000000767467923218148771_);}
	.st18{clip-path:url(#SVGID_00000121985325714093244230000017272992541549699469_);}
	.st19{fill:#38B6FF;}
</style>
<filter  height="100%" id="df424674fd" width="100%" x="0%" y="0%">
	<feColorMatrix  color-interpolation-filters="sRGB" values="0 0 0 0 1 0 0 0 0 1 0 0 0 0 1 0 0 0 1 0"></feColorMatrix>
</filter>
<g>
	<defs>
		<rect id="SVGID_1_" y="0.19" width="1365.33" height="767.62"/>
	</defs>
	<clipPath id="SVGID_00000142175038435175130800000008565652411465114012_">
		<use xlink:href="#SVGID_1_"  style="overflow:visible;"/>
	</clipPath>
	<g style="clip-path:url(#SVGID_00000142175038435175130800000008565652411465114012_);">
		<path class="st1" d="M0,0.19h1365.33v767.62H0V0.19z"/>
		<path class="st1" d="M0,0.19h1365.33v767.62H0V0.19z"/>
	</g>
</g>
<defs>
	<filter id="Adobe_OpacityMaskFilter" filterUnits="userSpaceOnUse" x="370.67" y="76" width="952" height="609.33">
		<feColorMatrix  type="matrix" values="1 0 0 0 0  0 1 0 0 0  0 0 1 0 0  0 0 0 1 0"/>
	</filter>
</defs>
<mask maskUnits="userSpaceOnUse" x="370.67" y="76" width="952" height="609.33" id="_x39_f3d763aca_00000063608808933803034700000003023752203452890766_">
	<g class="st2">
		<g>
			<rect x="-136.6" y="-76.8" class="st3" width="1639.2" height="921.6"/>
		</g>
	</g>
</mask>
<g class="st4">
	<g transform="matrix(1, 0, 0, 1, 278, 57)">
		<g>
			<defs>
				<rect id="SVGID_00000159449987482655557960000017264982536234684298_" x="92.67" y="19" width="952" height="609.33"/>
			</defs>
			<clipPath id="SVGID_00000106841369420775113910000017477359217576589997_">
				<use xlink:href="#SVGID_00000159449987482655557960000017264982536234684298_"  style="overflow:visible;"/>
			</clipPath>
			<g style="clip-path:url(#SVGID_00000106841369420775113910000017477359217576589997_);">
				<g>
					<defs>
						<rect id="SVGID_00000164497962872963788730000006116767958687620234_" x="93.66" y="19.31" width="950.58" height="608.98"/>
					</defs>
					<clipPath id="SVGID_00000021812392226558480890000016388008924661770897_">
						<use xlink:href="#SVGID_00000164497962872963788730000006116767958687620234_"  style="overflow:visible;"/>
					</clipPath>
					<g style="clip-path:url(#SVGID_00000021812392226558480890000016388008924661770897_);">
						<g transform="matrix(1, 0, 0, 1, 0, -0.000000000000056843)">
							<g>
								<defs>
									<rect id="SVGID_00000055666284312340853610000002492291684330583427_" x="92.67" y="19" width="952" height="609.33"/>
								</defs>
								<clipPath id="SVGID_00000059308955337069700400000009898948835812601787_">
									<use xlink:href="#SVGID_00000055666284312340853610000002492291684330583427_"  style="overflow:visible;"/>
								</clipPath>
								<g style="clip-path:url(#SVGID_00000059308955337069700400000009898948835812601787_);">
									<g>
										<defs>
											
												<rect id="SVGID_00000132780402319634563690000013717595063725321634_" x="93.66" y="19.31" width="950.58" height="608.98"/>
										</defs>
										<clipPath id="SVGID_00000079474293238173793270000009407387128946575529_">
											<use xlink:href="#SVGID_00000132780402319634563690000013717595063725321634_"  style="overflow:visible;"/>
										</clipPath>
										<g style="clip-path:url(#SVGID_00000079474293238173793270000009407387128946575529_);">
											<g transform="matrix(1, 0, 0, 1, 0, -0.000000000000056843)">
												<g>
													<defs>
														
															<rect id="SVGID_00000073705831269242215070000005729225993362975398_" x="92.67" y="19" width="952" height="609.33"/>
													</defs>
													<clipPath id="SVGID_00000060752349053942582650000003207844102975249807_">
														<use xlink:href="#SVGID_00000073705831269242215070000005729225993362975398_"  style="overflow:visible;"/>
													</clipPath>
													<g style="clip-path:url(#SVGID_00000060752349053942582650000003207844102975249807_);">
														<g>
															<g transform="translate(0.763276, 361.622809)">
																<g>
																	<path class="st10" d="M97.98,139.54v-354.73h168.25c28.72,0,53.8,4.99,75.25,14.96
																		c21.46,9.96,39.36,23.39,53.73,40.27c14.36,16.89,25.08,35.9,32.17,57.02c7.09,21.11,10.65,42.82,10.65,65.12
																		c0,22.29-3.55,43.99-10.65,65.1c-7.08,21.11-17.81,40.12-32.17,57.02c-14.36,16.89-32.27,30.32-53.73,40.29
																		c-21.45,9.96-46.53,14.94-75.25,14.94H97.98z M268.78,2.21c9.12,0,16.39-2.78,21.79-8.35
																		c5.4-5.58,9.03-12.34,10.9-20.27c1.86-7.94,1.86-15.97,0-24.08c-1.86-8.11-5.49-14.95-10.9-20.52
																		c-5.41-5.57-12.67-8.35-21.79-8.35h-39.54V2.21H268.78z"/>
																</g>
															</g>
														</g>
														<g>
															<g transform="translate(268.338807, 361.622809)">
																<g>
																	<path class="st10" d="M479.07-215.19l141.4,354.73h-141.4L399.51-80.9l-38,102.35h65.38l42.56,118.08H181.09
																		l138.85-354.73H479.07z"/>
																</g>
															</g>
														</g>
														<g>
															<g transform="translate(601.668048, 361.622809)">
																<g>
																	<path class="st10" d="M298.29,139.54v-354.73h131.77v354.73H298.29z"/>
																</g>
															</g>
														</g>
													</g>
												</g>
											</g>
										</g>
									</g>
								</g>
							</g>
						</g>
					</g>
				</g>
			</g>
		</g>
	</g>
</g>
<defs>
	
		<filter id="Adobe_OpacityMaskFilter_00000011711899062612946290000007601242920513291177_" filterUnits="userSpaceOnUse" x="58.67" y="214.67" width="270.67" height="338.67">
		<feColorMatrix  type="matrix" values="1 0 0 0 0  0 1 0 0 0  0 0 1 0 0  0 0 0 1 0"/>
	</filter>
</defs>
<mask maskUnits="userSpaceOnUse" x="58.67" y="214.67" width="270.67" height="338.67" id="a692ac4b8c_00000095308629723087095280000002562493369773326515_">
	<g class="st2">
		<g>
			<rect x="-136.6" y="-76.8" class="st11" width="1639.2" height="921.6"/>
		</g>
	</g>
</mask>
<g class="st12">
	<g transform="matrix(1, 0, 0, 1, 44, 161)">
		<g>
			<defs>
				<rect id="SVGID_00000121965066762519690370000010884294894935417505_" x="14.67" y="53.67" width="270.67" height="338.67"/>
			</defs>
			<clipPath id="SVGID_00000109023493909464443690000014568443172643945619_">
				<use xlink:href="#SVGID_00000121965066762519690370000010884294894935417505_"  style="overflow:visible;"/>
			</clipPath>
			<g style="clip-path:url(#SVGID_00000109023493909464443690000014568443172643945619_);">
				<g>
					<defs>
						<rect id="SVGID_00000114045639182540901390000016279295912093118603_" x="15.68" y="54.68" width="269.35" height="336.36"/>
					</defs>
					<clipPath id="SVGID_00000126311688527778101040000005201656942883711382_">
						<use xlink:href="#SVGID_00000114045639182540901390000016279295912093118603_"  style="overflow:visible;"/>
					</clipPath>
					<g style="clip-path:url(#SVGID_00000126311688527778101040000005201656942883711382_);">
						<g>
							<defs>
								<path id="SVGID_00000126307829465631198700000008534773419566147732_" d="M205.02,391.05c7.31,0,13.28-5.96,13.28-13.27
									c0-13.4,0-26.8,0-40.21c0-7.31,5.96-13.27,13.27-13.27h40.2c7.31,0,13.27-5.96,13.27-13.28v-42.55
									c0-7.31-5.96-13.27-13.27-13.27h-40.2c-7.31,0-13.27-5.96-13.27-13.28c0-12.62,0-25.23,0-37.85
									c0-7.31,5.96-13.28,13.27-13.28h40.2c7.31,0,13.27-5.96,13.27-13.27v-42.56c0-7.31-5.96-13.27-13.27-13.27h-40.2
									c-7.31,0-13.27-5.96-13.27-13.27c0-13.4,0-26.81,0-40.21c0-7.31-5.96-13.27-13.28-13.27h-42.56
									c-7.31,0-13.27,5.96-13.27,13.27v40.21c0,7.31-5.96,13.27-13.27,13.27H98.06c-7.31,0-13.27-5.96-13.27-13.27V68.21
									c0-7.31-5.96-13.28-13.27-13.28H28.96c-7.31,0-13.28,5.96-13.28,13.28v42.56c0,7.31,5.96,13.27,13.28,13.27h40.2
									c7.31,0,13.27,5.96,13.27,13.27v37.86c0,7.31-5.96,13.27-13.27,13.27h-40.2c-7.31,0-13.28,5.96-13.28,13.27v42.56
									c0,7.31,5.96,13.28,13.28,13.28h40.2c7.31,0,13.27,5.96,13.27,13.27v37.85c0,7.31-5.96,13.27-13.27,13.27h-40.2
									c-7.31,0-13.28,5.96-13.28,13.28v42.56c0,7.31,5.96,13.27,13.28,13.27h42.56c7.31,0,13.27-5.96,13.27-13.27v-40.21
									c0-7.31,5.96-13.27,13.27-13.27h37.85c7.31,0,13.27,5.96,13.27,13.27v40.21c0,7.31,5.96,13.27,13.28,13.27H205.02z"/>
							</defs>
							<clipPath id="SVGID_00000140722325505818668280000001641395981685578924_">
								<use xlink:href="#SVGID_00000126307829465631198700000008534773419566147732_"  style="overflow:visible;"/>
							</clipPath>
							<g style="clip-path:url(#SVGID_00000140722325505818668280000001641395981685578924_);">
								<g transform="matrix(1, 0, 0, 1, 0, -0.000000000000056843)">
									<g>
										<defs>
											
												<rect id="SVGID_00000013874301446681031620000015984495250797259950_" x="14.67" y="53.67" width="270.67" height="338.67"/>
										</defs>
										<clipPath id="SVGID_00000058549662195554691570000007165184109703089582_">
											<use xlink:href="#SVGID_00000013874301446681031620000015984495250797259950_"  style="overflow:visible;"/>
										</clipPath>
										<g style="clip-path:url(#SVGID_00000058549662195554691570000007165184109703089582_);">
											<g>
												<defs>
													
														<rect id="SVGID_00000099655701564341704250000002638394568349341056_" x="15.68" y="55" width="269.35" height="336.05"/>
												</defs>
												<clipPath id="SVGID_00000160153210962020263090000014621363902447689902_">
													<use xlink:href="#SVGID_00000099655701564341704250000002638394568349341056_"  style="overflow:visible;"/>
												</clipPath>
												<g style="clip-path:url(#SVGID_00000160153210962020263090000014621363902447689902_);">
													<g>
														<defs>
															<path id="SVGID_00000021826286514967641130000009638380172671298720_" d="M205.02,391.05
																c7.31,0,13.28-5.96,13.28-13.27c0-13.4,0-26.8,0-40.21c0-7.31,5.96-13.27,13.27-13.27h40.2
																c7.31,0,13.27-5.96,13.27-13.28v-42.55c0-7.31-5.96-13.27-13.27-13.27h-40.2c-7.31,0-13.27-5.96-13.27-13.28
																c0-12.62,0-25.23,0-37.85c0-7.31,5.96-13.28,13.27-13.28h40.2c7.31,0,13.27-5.96,13.27-13.27v-42.56
																c0-7.31-5.96-13.27-13.27-13.27h-40.2c-7.31,0-13.27-5.96-13.27-13.27c0-13.4,0-26.81,0-40.21
																c0-7.31-5.96-13.27-13.28-13.27h-42.56c-7.31,0-13.27,5.96-13.27,13.27v40.21c0,7.31-5.96,13.27-13.27,13.27H98.06
																c-7.31,0-13.27-5.96-13.27-13.27V68.21c0-7.31-5.96-13.28-13.27-13.28H28.96c-7.31,0-13.28,5.96-13.28,13.28v42.56
																c0,7.31,5.96,13.27,13.28,13.27h40.2c7.31,0,13.27,5.96,13.27,13.27v37.86c0,7.31-5.96,13.27-13.27,13.27h-40.2
																c-7.31,0-13.28,5.96-13.28,13.27v42.56c0,7.31,5.96,13.28,13.28,13.28h40.2c7.31,0,13.27,5.96,13.27,13.27v37.85
																c0,7.31-5.96,13.27-13.27,13.27h-40.2c-7.31,0-13.28,5.96-13.28,13.28v42.56c0,7.31,5.96,13.27,13.28,13.27h42.56
																c7.31,0,13.27-5.96,13.27-13.27v-40.21c0-7.31,5.96-13.27,13.27-13.27h37.85c7.31,0,13.27,5.96,13.27,13.27v40.21
																c0,7.31,5.96,13.27,13.28,13.27H205.02z"/>
														</defs>
														<clipPath id="SVGID_00000138568246442691301630000006498785520819167922_">
															<use xlink:href="#SVGID_00000021826286514967641130000009638380172671298720_"  style="overflow:visible;"/>
														</clipPath>
														<g style="clip-path:url(#SVGID_00000138568246442691301630000006498785520819167922_);">
															<path class="st19" d="M285.04,391.05H15.68V55.02h269.35V391.05z"/>
														</g>
													</g>
												</g>
											</g>
										</g>
									</g>
								</g>
							</g>
						</g>
					</g>
				</g>
			</g>
		</g>
	</g>
</g>
</svg>
