<?xml version="1.0" encoding="utf-8"?>
<!-- Generator: Adobe Illustrator 29.8.2, SVG Export Plug-In . SVG Version: 9.03 Build 0)  -->
<svg version="1.0" id="katman_1" xmlns="http://www.w3.org/2000/svg" xmlns:xlink="http://www.w3.org/1999/xlink" x="0px" y="0px"
	 viewBox="0 0 1024 500" style="enable-background:new 0 0 1024 500;" xml:space="preserve">
<style type="text/css">
	.st0{opacity:0.15;fill:#F0FF2A;stroke:url(#SVGID_1_);stroke-miterlimit:10;}
	.st1{opacity:0.15;fill:#F0FF2A;stroke:url(#SVGID_00000015329476200839939720000017768097157056381358_);stroke-miterlimit:10;}
	.st2{display:none;}
	.st3{display:inline;fill:#B3B7C1;}
	.st4{display:inline;fill:#FFFFFF;}
	.st5{opacity:0.47;fill:#00F9E6;stroke:url(#SVGID_00000119112424905691249070000012555798796220912274_);stroke-miterlimit:10;}
	.st6{opacity:0.47;fill:#00F9E6;stroke:url(#SVGID_00000125568385080090386900000015723745784289424055_);stroke-miterlimit:10;}
	.st7{opacity:0.47;fill:#00F9E6;stroke:url(#SVGID_00000170259853038029604220000008773512436646940050_);stroke-miterlimit:10;}
	.st8{fill:#0CF43D;}
	.st9{fill:#32397F;}
</style>
<linearGradient id="SVGID_1_" gradientUnits="userSpaceOnUse" x1="59.5785" y1="236.1423" x2="416.2972" y2="236.1423">
	<stop  offset="0.814" style="stop-color:#068E16"/>
	<stop  offset="0.8428" style="stop-color:#068A15"/>
	<stop  offset="0.8744" style="stop-color:#057C13"/>
	<stop  offset="0.9074" style="stop-color:#046610"/>
	<stop  offset="0.9414" style="stop-color:#03480B"/>
	<stop  offset="0.9757" style="stop-color:#012005"/>
	<stop  offset="1" style="stop-color:#000000"/>
</linearGradient>
<path class="st0" d="M110.68,65.37c61.1,0.88,122.2,1.76,183.31,2.65c15.77,4.93,52.37,18.7,82.22,54.23
	c2.86,3.41,39.92,48.79,39.59,110.78c-0.37,70.51-48.96,137.56-123.16,173.61c-60.88,0-121.75,0-182.63,0
	c-27.39,2.79-48.66-15.44-49.87-32.41c-1.31-18.3,20.3-41.02,50.54-38.36c17.15-0.6,43.85-1.3,76.66-1.16
	c54.47,0.24,71.41,2.58,86.03-1.54c3.17-0.89,5.68-1.91,8.99-3.42c31.21-14.22,59.33-54.21,56.04-99.16
	c-2.83-38.77-28.43-73.1-65.64-88.34c-27.63,0.17-55.26,0.33-82.89,0.5c-0.45,23.63-0.84,47.26-1.19,70.89
	c-0.59,40.36-1.04,80.71-1.34,121.07c-25.55,0.39-51.11,0.77-76.66,1.16C110.68,245.7,110.68,155.53,110.68,65.37z"/>
<linearGradient id="SVGID_00000137814005722867512140000012120460042584286350_" gradientUnits="userSpaceOnUse" x1="398.8798" y1="247.1386" x2="908.175" y2="247.1386">
	<stop  offset="0.814" style="stop-color:#068E16"/>
	<stop  offset="0.8428" style="stop-color:#068A15"/>
	<stop  offset="0.8744" style="stop-color:#057C13"/>
	<stop  offset="0.9074" style="stop-color:#046610"/>
	<stop  offset="0.9414" style="stop-color:#03480B"/>
	<stop  offset="0.9757" style="stop-color:#012005"/>
	<stop  offset="1" style="stop-color:#000000"/>
</linearGradient>
<path style="opacity:0.15;fill:#F0FF2A;stroke:url(#SVGID_00000137814005722867512140000012120460042584286350_);stroke-miterlimit:10;" d="
	M570.7,417.64H426.28c-2.78,0-5.52-0.74-7.89-2.21c-3.97-2.46-9.36-6.74-13.47-13.65c-4.45-7.48-5.45-14.75-5.54-19.53
	c-0.05-2.53,0.56-5.03,1.73-7.28c50.62-96.73,101.24-193.45,151.86-290.19c2.62-5.01,7.81-8.15,13.46-8.15h58.14
	c5.81,0,11.11,3.31,13.66,8.54c40.32,82.78,80.64,165.56,120.95,248.34c2.61,5.35,8.1,8.69,14.05,8.53
	c8.88-0.23,17.77-0.46,26.66-0.69c8.23-0.21,14.8-6.95,14.8-15.18V156.57c0-8.38,6.78-15.17,15.16-15.19
	c20.87-0.04,41.75-0.07,62.62-0.11c8.4-0.02,15.22,6.79,15.22,15.19v245.99c0,8.39-6.8,15.19-15.19,15.19H700.18
	c-5.94,0-11.33-3.46-13.81-8.86c-27.29-59.52-54.57-119.03-81.86-178.55c-5.14-11.21-20.78-11.95-26.95-1.28
	c-16.97,29.34-33.94,58.68-50.91,88.01c-6.01,10.39,1.83,23.31,13.82,22.78c10.15-0.45,20.29-0.91,30.44-1.36
	c0.77-0.03,1.53-0.02,2.3,0.06c21.92,2.5,38,21.49,36.59,42.18C608.45,400.27,591.69,416.56,570.7,417.64z"/>
<g id="Üretken_Nesne">
	<g id="Background_00000082345993468862331600000003819422164008117651_" class="st2">
		<path class="st3" d="M192.32,762.69c14,0.23,28.06-0.09,42.07,0h56.34c4.75-0.05,9.53,0.07,14.27,0c9.95-0.14,20.13,0.53,30.05,0
			c2.45-0.13,5.1,0.26,7.51,0c-7.32,3.79-16.12,1.18-23.66,1.47c-40.62,1.61-101.62,5.68-141.22,0.74
			c-1.04-0.13-3.03-0.76-2.63-2.21C180.77,762.88,186.58,762.6,192.32,762.69z"/>
		<path class="st4" d="M331.29,424.33h-2.25v-0.74C330.71,423.78,331.17,424.31,331.29,424.33z"/>
		<rect x="28.56" y="300.48" class="st4" width="1009.59" height="566.16"/>
		<path class="st4" d="M338.8,686.76c-24.47,8.28-65.35,4.01-92.4,4.42l0.38-194.62c21.96,1.52,46.74-2.04,68.36,0
			C410.18,505.53,426.15,657.22,338.8,686.76z"/>
	</g>
</g>
<linearGradient id="SVGID_00000167384342815944577720000010516010586485082559_" gradientUnits="userSpaceOnUse" x1="59.2571" y1="239.6221" x2="415.9758" y2="239.6221">
	<stop  offset="0.814" style="stop-color:#068E16"/>
	<stop  offset="0.8428" style="stop-color:#068A15"/>
	<stop  offset="0.8744" style="stop-color:#057C13"/>
	<stop  offset="0.9074" style="stop-color:#046610"/>
	<stop  offset="0.9414" style="stop-color:#03480B"/>
	<stop  offset="0.9757" style="stop-color:#012005"/>
	<stop  offset="1" style="stop-color:#000000"/>
</linearGradient>
<path style="opacity:0.47;fill:#00F9E6;stroke:url(#SVGID_00000167384342815944577720000010516010586485082559_);stroke-miterlimit:10;" d="
	M110.35,68.85c61.1,0.88,122.2,1.76,183.31,2.65c15.77,4.93,52.37,18.7,82.22,54.23c2.86,3.41,39.92,48.79,39.59,110.78
	c-0.37,70.51-48.96,137.56-123.16,173.61c-60.88,0-121.75,0-182.63,0c-27.39,2.79-48.66-15.44-49.87-32.41
	c-1.31-18.3,20.3-41.02,50.54-38.36c17.15-0.6,43.85-1.3,76.66-1.16c54.47,0.24,71.41,2.58,86.03-1.54
	c3.17-0.89,5.68-1.91,8.99-3.42c31.21-14.22,59.33-54.21,56.04-99.16c-2.83-38.77-28.43-73.1-65.64-88.34
	c-27.63,0.17-55.26,0.33-82.89,0.5c-0.45,23.63-0.84,47.26-1.19,70.89c-0.59,40.36-1.04,80.71-1.34,121.07
	c-25.55,0.39-51.11,0.77-76.66,1.16C110.35,249.18,110.35,159.01,110.35,68.85z"/>
<linearGradient id="SVGID_00000104688629957622522390000004984883537524757903_" gradientUnits="userSpaceOnUse" x1="398.5584" y1="250.6184" x2="907.8536" y2="250.6184">
	<stop  offset="0.814" style="stop-color:#068E16"/>
	<stop  offset="0.8428" style="stop-color:#068A15"/>
	<stop  offset="0.8744" style="stop-color:#057C13"/>
	<stop  offset="0.9074" style="stop-color:#046610"/>
	<stop  offset="0.9414" style="stop-color:#03480B"/>
	<stop  offset="0.9757" style="stop-color:#012005"/>
	<stop  offset="1" style="stop-color:#000000"/>
</linearGradient>
<path style="opacity:0.47;fill:#00F9E6;stroke:url(#SVGID_00000104688629957622522390000004984883537524757903_);stroke-miterlimit:10;" d="
	M570.38,421.12H425.96c-2.78,0-5.52-0.74-7.89-2.21c-3.97-2.46-9.36-6.74-13.47-13.65c-4.45-7.48-5.45-14.75-5.54-19.53
	c-0.05-2.53,0.56-5.03,1.73-7.28C451.41,281.72,502.03,185,552.65,88.26c2.62-5.01,7.81-8.15,13.46-8.15h58.14
	c5.81,0,11.11,3.31,13.66,8.54c40.32,82.78,80.64,165.56,120.95,248.34c2.61,5.35,8.1,8.69,14.05,8.53
	c8.88-0.23,17.77-0.46,26.66-0.69c8.23-0.21,14.8-6.95,14.8-15.18V160.05c0-8.38,6.78-15.17,15.16-15.19
	c20.87-0.04,41.75-0.07,62.62-0.11c8.4-0.02,15.22,6.79,15.22,15.19v245.99c0,8.39-6.8,15.19-15.19,15.19H699.86
	c-5.94,0-11.33-3.46-13.81-8.86c-27.29-59.52-54.57-119.03-81.86-178.55c-5.14-11.21-20.78-11.95-26.95-1.28
	c-16.97,29.34-33.94,58.68-50.91,88.01c-6.01,10.39,1.83,23.31,13.82,22.78c10.15-0.45,20.29-0.91,30.44-1.36
	c0.77-0.03,1.53-0.02,2.3,0.06c21.92,2.5,38,21.49,36.59,42.18C608.13,403.75,591.37,420.04,570.38,421.12z"/>
<linearGradient id="SVGID_00000158027590943333027500000009006508087648493196_" gradientUnits="userSpaceOnUse" x1="830.8919" y1="77.8071" x2="907.8536" y2="77.8071">
	<stop  offset="0.814" style="stop-color:#068E16"/>
	<stop  offset="0.8428" style="stop-color:#068A15"/>
	<stop  offset="0.8744" style="stop-color:#057C13"/>
	<stop  offset="0.9074" style="stop-color:#046610"/>
	<stop  offset="0.9414" style="stop-color:#03480B"/>
	<stop  offset="0.9757" style="stop-color:#012005"/>
	<stop  offset="1" style="stop-color:#000000"/>
</linearGradient>
<path style="opacity:0.47;fill:#00F9E6;stroke:url(#SVGID_00000158027590943333027500000009006508087648493196_);stroke-miterlimit:10;" d="
	M831.43,80.09c0.85,18.1,15.48,34.33,34.09,36.28c19.26,2.02,37.98-11.75,41.32-32.01c3.55-21.56-11.79-41.5-30.99-44.82
	C852.82,35.54,830.34,56.54,831.43,80.09z"/>
<path class="st8" d="M127.93,74.21c61.1,0.88,122.2,1.76,183.31,2.65c15.77,4.93,52.37,18.7,82.22,54.23
	c2.86,3.41,39.92,48.79,39.59,110.78c-0.37,70.51-48.96,137.56-123.16,173.61c-60.88,0-121.75,0-182.63,0
	c-27.39,2.79-48.66-15.44-49.87-32.41c-1.31-18.3,20.3-41.02,50.54-38.36c17.15-0.6,43.85-1.3,76.66-1.16
	c54.47,0.24,71.41,2.58,86.03-1.54c3.17-0.89,5.68-1.91,8.99-3.42c31.21-14.22,59.33-54.21,56.04-99.16
	c-2.83-38.77-28.43-73.1-65.64-88.34c-27.63,0.17-55.26,0.33-82.89,0.5c-0.45,23.63-0.84,47.26-1.19,70.89
	c-0.59,40.36-1.04,80.71-1.34,121.07c-25.55,0.39-51.11,0.77-76.66,1.16C127.93,254.54,127.93,164.37,127.93,74.21z"/>
<path class="st9" d="M587.95,426.48H443.53c-2.78,0-5.52-0.74-7.89-2.21c-3.97-2.46-9.36-6.74-13.47-13.65
	c-4.45-7.48-5.45-14.75-5.54-19.53c-0.05-2.53,0.56-5.03,1.73-7.28c50.62-96.73,101.24-193.45,151.86-290.19
	c2.62-5.01,7.81-8.15,13.46-8.15h58.14c5.81,0,11.11,3.31,13.66,8.54c40.32,82.78,80.64,165.56,120.95,248.34
	c2.61,5.35,8.1,8.69,14.05,8.53c8.88-0.23,17.77-0.46,26.66-0.69c8.23-0.21,14.8-6.95,14.8-15.18V165.41
	c0-8.38,6.78-15.17,15.16-15.19c20.87-0.04,41.75-0.07,62.62-0.11c8.4-0.02,15.22,6.79,15.22,15.19v245.99
	c0,8.39-6.8,15.19-15.19,15.19H717.43c-5.94,0-11.33-3.46-13.81-8.86c-27.29-59.52-54.57-119.03-81.86-178.55
	c-5.14-11.21-20.78-11.95-26.95-1.28c-16.97,29.34-33.94,58.68-50.91,88.01c-6.01,10.39,1.83,23.31,13.82,22.78
	c10.15-0.45,20.29-0.91,30.44-1.36c0.77-0.03,1.53-0.02,2.3,0.06c21.92,2.5,38,21.49,36.59,42.18
	C625.7,409.11,608.94,425.4,587.95,426.48z"/>
<path class="st9" d="M841.35,82.4c0.85,18.1,15.48,34.33,34.09,36.28c19.26,2.02,37.98-11.75,41.32-32.01
	c3.55-21.56-11.79-41.5-30.99-44.82C862.74,37.85,840.27,58.85,841.35,82.4z"/>
</svg>
