<?xml version="1.0" encoding="UTF-8"?>
<svg id="katman_1" data-name="katman 1" xmlns="http://www.w3.org/2000/svg" xmlns:xlink="http://www.w3.org/1999/xlink" viewBox="0 0 1009.59 566.16">
  <defs>
    <style>
      .cls-1 {
        fill: #97c636;
      }

      .cls-2 {
        fill: #2c5e88;
      }

      .cls-3 {
        fill: #a4463c;
      }

      .cls-4 {
        fill: #a6b988;
      }

      .cls-5 {
        fill: #3d632e;
      }

      .cls-6 {
        fill: #406e27;
      }

      .cls-7 {
        fill: #b1d3e6;
      }

      .cls-8 {
        fill: #669dbe;
      }

      .cls-9 {
        fill: #fff;
      }

      .cls-10 {
        fill: #416a84;
      }

      .cls-11 {
        fill: #6b6361;
      }

      .cls-12 {
        fill: #cce586;
      }

      .cls-13 {
        fill: #b92427;
      }

      .cls-14 {
        fill: #5da0cf;
      }

      .cls-15 {
        fill: #9ea59b;
      }

      .cls-16 {
        fill: #c2dc8b;
      }

      .cls-17 {
        fill: #ed8e92;
      }

      .cls-18 {
        fill: #61824d;
      }

      .cls-19 {
        fill: url(#Adsız_degrade_477);
      }

      .cls-20 {
        fill: #c8262f;
      }

      .cls-21 {
        fill: #4d82a8;
      }

      .cls-22 {
        fill: #86a16d;
      }

      .cls-23 {
        fill: #3a637f;
      }

      .cls-24 {
        fill: #da606c;
      }

      .cls-25 {
        fill: url(#Adsız_degrade_481);
      }

      .cls-26 {
        fill: #74747a;
      }

      .cls-27 {
        fill: #4d7e9f;
      }

      .cls-28 {
        fill: url(#Adsız_degrade_478);
      }

      .cls-29 {
        fill: url(#Adsız_degrade_480);
      }

      .cls-30 {
        fill: url(#Adsız_degrade_482);
      }

      .cls-31 {
        fill: url(#Adsız_degrade_479);
      }
    </style>
    <linearGradient id="Adsız_degrade_479" data-name="Adsız degrade 479" x1="564.9" y1="113.08" x2="505.09" y2="394.32" gradientUnits="userSpaceOnUse">
      <stop offset="0" stop-color="#cbe593"/>
      <stop offset=".37" stop-color="#a8d23e"/>
      <stop offset="1" stop-color="#75ba48"/>
    </linearGradient>
    <linearGradient id="Adsız_degrade_481" data-name="Adsız degrade 481" x1="426.6" y1="409.35" x2="588.81" y2="447.9" gradientUnits="userSpaceOnUse">
      <stop offset="0" stop-color="#528934"/>
      <stop offset="1" stop-color="#9dc53a"/>
    </linearGradient>
    <linearGradient id="Adsız_degrade_478" data-name="Adsız degrade 478" x1="909.92" y1="197.39" x2="818.86" y2="455.87" gradientUnits="userSpaceOnUse">
      <stop offset="0" stop-color="#87c6ea"/>
      <stop offset=".68" stop-color="#4790c8"/>
      <stop offset="1" stop-color="#266398"/>
    </linearGradient>
    <linearGradient id="Adsız_degrade_482" data-name="Adsız degrade 482" x1="851.92" y1="114.85" x2="885.3" y2="163.88" gradientUnits="userSpaceOnUse">
      <stop offset="0" stop-color="#92cbec"/>
      <stop offset="1" stop-color="#3a8dcc"/>
    </linearGradient>
    <linearGradient id="Adsız_degrade_480" data-name="Adsız degrade 480" x1="661.39" y1="205.61" x2="730.28" y2="467.07" gradientUnits="userSpaceOnUse">
      <stop offset="0" stop-color="#6da8cc"/>
      <stop offset="1" stop-color="#3f85c2"/>
    </linearGradient>
    <linearGradient id="Adsız_degrade_477" data-name="Adsız degrade 477" x1="118.97" y1="151.49" x2="345.24" y2="438.19" gradientUnits="userSpaceOnUse">
      <stop offset="0" stop-color="#ef8466"/>
      <stop offset=".8" stop-color="#e3414b"/>
    </linearGradient>
  </defs>
  <g id="_Üretken_Nesne" data-name="Üretken Nesne">
    <g>
      <g>
        <g>
          <path class="cls-15" d="M577.66,461.48c.74-.06,1.52.07,2.25,0-7.29,3.2-15.47,2.08-23.29,2.21l1.5-1.47c3.24-.09,6.53.14,9.77,0s6.52-.48,9.77-.74Z"/>
          <g>
            <path class="cls-31" d="M646.02,122.37c-1.42.94-.62,3.64-.75,5.16-.99,11.49-5.42,22.61-9.77,33.17-7.82,7.67-11.28,20.17-16.53,29.86-21.89,40.42-46.52,86.52-70.61,125.32-20.9,33.66-42.2,47.58-77.75,64.5-20.13,9.58-41.31,12.08-53.71,33.91l152.12-293.4,77,1.47Z"/>
            <path class="cls-25" d="M538.6,390.71c13.18.05,38.74.82,49.2,8.11,19.75,13.75,18.48,45.08-2.25,57.5l-17.65,5.9c-3.23.14-6.53-.09-9.77,0-32,.92-64.17-1.3-96.15.74-17.72-.54-34.45,4.63-45.82-16.22-.14-6.46-2.59-12.92-1.5-19.54,1.65-10.01,13.43-24.22,22.54-29.12,5.28-2.84,7.6-3.1,12.77-3.69,2.01-.23,4.44-.59,6.39-.74.54-.04.21,1.51.75,1.47.33-.02,4.49-1.38,6.39-1.47,16.88-.87,34.17-1.11,51.08-1.47,3.23-.07,6.71-.68,9.77-.74,4.64-.08,9.64-.76,14.27-.74Z"/>
            <path class="cls-6" d="M643.77,159.97c-6.4,31.6-24.43,59.71-39.81,87.73-25.44,46.35-53.63,91.37-78.87,137.85-.71,0-.79.73-1.5.74-2.71.04-5.48-.06-8.26,0-9.89.23-20.18-.48-30.05,0-12.47.61-21.68.12-33.43,5.16-1.12.48-3.27,1.33-1.88,2.95-5.17.58-7.49.85-12.77,3.69,21.47-11.8,44.7-18.25,65.73-31.7,41.9-26.8,64.09-78.09,87.51-120.53,14.6-26.45,33.78-57.71,45.07-85.15,4.35-10.57,8.78-21.69,9.77-33.17,3.7,10.32.62,21.94-1.5,32.44Z"/>
            <path class="cls-16" d="M618.98,411.35l-17.28,4.05c6.16,20.02-3.56,39.52-24.04,46.07-3.24.26-6.52.59-9.77.74l17.65-5.9c20.74-12.42,22.01-43.75,2.25-57.5-10.46-7.28-36.02-8.05-49.2-8.11.85-6.05-2.34-3.42-6.01-5.16,29.67-.04,75.73-9.16,86.39,25.8Z"/>
            <path class="cls-12" d="M635.5,160.71c-11.29,27.44-30.47,58.69-45.07,85.15-23.42,42.44-45.62,93.73-87.51,120.53-21.03,13.45-44.26,19.9-65.73,31.7-9.1,4.89-20.89,19.11-22.54,29.12-1.09,6.62,1.37,13.08,1.5,19.54-5.54-10.15-5.39-22.47.75-32.44,12.4-21.83,33.58-24.33,53.71-33.91,35.55-16.92,56.85-30.85,77.75-64.5,24.09-38.8,48.73-84.9,70.61-125.32,5.25-9.69,8.7-22.18,16.53-29.86Z"/>
            <path class="cls-1" d="M618.98,411.35c9.36,30.71-9.71,47.3-39.06,50.13-.73.07-1.52-.06-2.25,0,20.48-6.55,30.19-26.05,24.04-46.07l17.28-4.05Z"/>
            <path class="cls-26" d="M558.13,462.22l-1.5,1.47c-31.49.52-63.18.23-94.65-.74,31.98-2.03,64.15.18,96.15-.74Z"/>
            <path class="cls-4" d="M532.59,385.55c3.67,1.74,6.86-.89,6.01,5.16-4.63-.02-9.63.66-14.27.74l-.75-5.16c.72,0,.79-.73,1.5-.74,2.49-.02,5.02,0,7.51,0Z"/>
            <path class="cls-18" d="M515.31,386.29l-.75,5.9c-16.91.36-34.2.61-51.08,1.47,5.91-5.33,24.57,4.57,21.78-7.37,9.86-.48,20.15.23,30.05,0Z"/>
            <path class="cls-5" d="M485.27,386.29c2.79,11.94-15.87,2.04-21.78,7.37-1.9.1-6.06,1.45-6.39,1.47-.54.03-.21-1.51-.75-1.47-1.95.15-4.37.51-6.39.74-1.39-1.62.75-2.47,1.88-2.95,11.75-5.04,20.96-4.55,33.43-5.16Z"/>
            <path class="cls-22" d="M523.58,386.29l.75,5.16c-3.06.05-6.54.67-9.77.74l.75-5.9c2.78-.06,5.56.04,8.26,0Z"/>
          </g>
        </g>
        <g>
          <g>
            <path class="cls-28" d="M904.43,186.51c-1.38,84.93-.75,170.07-.75,255.07v21.38c-.25.01-.5-.01-.75,0l-92.77-1.47c-2.13-4.95-5.47-9.62-7.89-14.38-.05-.1,1.36-.99.75-2.21-.39-.78-1.86.05-2.25-.74-1.13-2.24-4.01-11.49-5.26-14.01-1.46-2.93-11.25-23.06-12.77-23.22,1.09-1.41.58-1.92,0-3.32-2.25-5.38-5.04-11.28-7.51-16.59l51.08-1.11v-199.04c25.93-2.24,52.17-1.14,78.12-.37Z"/>
            <path class="cls-30" d="M865.74,101.73c50.94-3.87,55.94,73.49,6.76,77.4-50.44,4.02-54.87-73.75-6.76-77.4Z"/>
            <path class="cls-14" d="M903.68,462.95v-21.38l1.5-255.07c1.95.05,12.4-1.92,13.52-.37v275.71c-5.01.33-10.02.86-15.02,1.11Z"/>
            <path class="cls-9" d="M903.68,441.57c0-85-.62-170.13.75-255.07.25,0,.5,0,.75,0l-1.5,255.07Z"/>
          </g>
          <g>
            <path class="cls-29" d="M662.55,196.09c29.94,70.55,67.48,142.14,101.41,211.2.34.69,1.58,3.13,1.5.37.8,1.64,2.21,3.52,3,5.16,8.23,16.96,15.85,34.24,24.79,50.87-10.98-.07-88.99.49-92.4-2.58-28.1-62.98-57.39-125.44-85.64-188.35,2.34-5.94,7.42-6.96,10.52-12.9.25-.48-1.4-2.27-.75-3.69.78-1.69,4.11-3.78,5.26-7.37,1.02-3.18.95-14.09,2.25-16.22,1.11-1.81,3.76-.98,5.26-3.69,1.42-2.55,2.5-14.67,4.51-16.59.65-.62,4.89-1.1,6.01-2.58,1.55-2.05,2.94-10.77,3.76-12.53,1.64-3.55,4.57-6.51,6.39-9.95,2.38,2.72,2.85,5.83,4.13,8.85Z"/>
            <path class="cls-8" d="M720.39,274.97c2.24,7.88-10.65,3.09-14.27,8.11-14.12-29.14-28.66-58.23-43.57-86.99-1.28-3.02-1.75-6.13-4.13-8.85-1.82,3.44-4.75,6.4-6.39,9.95-.81,1.76-2.21,10.48-3.76,12.53-1.12,1.48-5.36,1.96-6.01,2.58l8.26-35.75-3-2.58c.4-3.4-.18-12.63-3.76-14.01,2.13-10.5,5.21-22.12,1.5-32.44.13-1.52-.67-4.22.75-5.16,25.32,50.6,49.66,101.7,74.37,152.6Z"/>
            <path class="cls-21" d="M775.22,387.02c2.47,5.3,5.26,11.2,7.51,16.59.58,1.4,1.09,1.91,0,3.32-2.18-.23-12.91,3.3-14.27,5.9-.8-1.64-2.21-3.52-3-5.16-20.05-41.38-39.29-83.2-59.34-124.58,3.62-5.02,16.52-.23,14.27-8.11,18.13,37.35,37.32,74.43,54.84,112.05Z"/>
            <path class="cls-2" d="M782.74,406.93c1.52.16,11.31,20.29,12.77,23.22,1.25,2.51,4.13,11.77,5.26,14.01.39.78,1.86-.05,2.25.74.61,1.22-.8,2.11-.75,2.21,2.42,4.75,5.75,9.43,7.89,14.38l92.77,1.47c-35.84,1.76-73.68.96-109.67.74-8.94-16.62-16.56-33.91-24.79-50.87,1.37-2.59,12.1-6.12,14.27-5.9Z"/>
            <path class="cls-27" d="M642.26,212.31c-2,1.92-3.09,14.04-4.51,16.59-1.5,2.71-4.15,1.87-5.26,3.69-1.3,2.13-1.23,13.03-2.25,16.22-1.15,3.59-4.48,5.68-5.26,7.37-.65,1.41,1,3.2.75,3.69-3.1,5.94-8.18,6.96-10.52,12.9-1.85-4.12-3.43-8.43-5.26-12.53.72-2.13,4.62-3.68,5.26-4.79,2.53-4.38,5.59-15.67,7.51-19.9,2.5-5.5,5.06-11.08,7.51-16.59,5.88-13.22,11.32-25.61,15.77-40.55.5-1.66,1.27-2.44,1.5-4.42l3,2.58-8.26,35.75Z"/>
            <path class="cls-23" d="M647.52,173.98c-.23,1.98-1.01,2.76-1.5,4.42-1.41-.88-1.88-1.16-3,.37-1.7,2.3-15.47,34.92-15.02,36.86.05.19,2.38,1.72,2.25,3.32-2.45,5.5-5.01,11.09-7.51,16.59-1.93,4.23-4.98,15.52-7.51,19.9-.64,1.11-4.53,2.66-5.26,4.79-1.87-4.18-4.41-8.2-6.01-12.53,15.38-28.02,33.41-56.13,39.81-87.73,3.57,1.38,4.16,10.6,3.76,14.01Z"/>
            <path class="cls-7" d="M706.12,283.08c20.05,41.38,39.29,83.2,59.34,124.58.07,2.76-1.16.32-1.5-.37-33.93-69.07-71.47-140.66-101.41-211.2,14.91,28.76,29.45,57.85,43.57,86.99Z"/>
            <path class="cls-10" d="M646.02,178.4c-4.46,14.94-9.89,27.32-15.77,40.55.13-1.6-2.21-3.12-2.25-3.32-.45-1.94,13.32-34.55,15.02-36.86,1.13-1.53,1.6-1.25,3-.37Z"/>
          </g>
        </g>
      </g>
      <g>
        <path class="cls-19" d="M285.45,123.11h9.01c.74.03,1.51-.04,2.25,0,.37,1.25,2.68.74,3.76.74h2.25c62.79,9.55,118.12,69.02,129.96,129.01,13.13,66.6-9.25,131.94-60.09,176.92-20.27,15.11-44.44,25.86-69.48,30.96l3.38,1.47c-9.92.53-20.1-.14-30.05,0h-112.68c-5.74-.1-11.54.19-17.28,0-15.44-.5-31.18.82-43.94-9.58-17.22-14.04-16.15-43.2,5.63-52.34,26.4-11.08,132.56-2.73,169.39-5.16,10.05-.66,25.6-1.92,32.68-8.85,87.35-29.54,71.38-181.24-23.66-190.19-21.62-2.04-46.4,1.52-68.36,0l-.38,194.62c-24.93.38-53.27-1.25-77.37,0l1.5-266.86c47,1.27,94.27-1.37,141.22-.74.75,0,1.51-.01,2.25,0Z"/>
        <path class="cls-24" d="M441.7,251.38l-9.01,1.47c-11.83-59.99-67.17-119.45-129.96-129.01-.12-.02-.57-.55-2.25-.74-.25-.03-.5.02-.75,0,22.44-1.24,47.55,8.49,66.48,19.9,38.07,22.95,67.07,65.32,75.49,108.37Z"/>
        <path class="cls-20" d="M441.7,251.38c13.21,67.48-13.52,136.98-69.11,178.4,50.84-44.98,73.23-110.33,60.09-176.92l9.01-1.47Z"/>
        <path class="cls-17" d="M310.24,386.29c-7.07,6.93-22.63,8.18-32.68,8.85-36.83,2.43-142.99-5.92-169.39,5.16,8.54-6.74,21.42-9.02,32.3-9.58,24.1-1.25,52.44.38,77.37,0,27.04-.41,67.93,3.85,92.4-4.42Z"/>
        <path class="cls-13" d="M372.59,429.78c-14.35,12.69-39.23,30.38-58.59,32.44-2.41.26-5.06-.13-7.51,0l-3.38-1.47c25.04-5.11,49.21-15.86,69.48-30.96Z"/>
        <path class="cls-9" d="M283.2,123.11c-46.95-.63-94.22,2-141.22.74l141.22-.74Z"/>
        <path class="cls-9" d="M294.47,123.11h-9.01c2.99.04,6.03-.11,9.01,0Z"/>
        <path class="cls-9" d="M299.72,123.11c.25.02.5-.03.75,0v.74c-1.08,0-3.38.51-3.76-.74.99.06,2.03-.1,3,0Z"/>
        <path class="cls-3" d="M276.44,462.22c-4.75.07-9.53-.05-14.27,0-18.75.18-37.59.13-56.34,0-14-.09-28.07.23-42.07,0h112.68Z"/>
        <path class="cls-11" d="M262.16,462.22h-56.34c18.75.13,37.59.18,56.34,0Z"/>
      </g>
    </g>
  </g>
</svg>